<svg id="Slider" xmlns="http://www.w3.org/2000/svg" viewBox="0 0 112.08 113.82"><defs><style>.cls-1{fill:#8c264d;}.cls-2{fill:#fffafc;}.cls-3{font-size:14px;font-family:Helvetica Neue;font-weight:700;}.cls-3,.cls-5{fill:#fff;}.cls-4{fill:#01a4a9;}</style></defs><title>modal</title><rect class="cls-1" width="112.08" height="112.08" rx="9.35" ry="9.35"/><text x="-2.58" y="-2.58"/><path class="cls-2" d="M80.32,29L78.23,27h4.43A6.08,6.08,0,0,1,88.73,33V46H92.8V33A10.16,10.16,0,0,0,82.66,22.88H78.23l2.09-2.09L77.44,17.9l-7,7,7,7Z" transform="translate(-2.58 -2.58)"/><path class="cls-2" d="M30,69.29l2.41,2.41H30.17a6.09,6.09,0,0,1-6.09-6.07V56.25H20v9.38A10.17,10.17,0,0,0,30.17,75.78h2.23L30,78.19l2.88,2.88,7.33-7.34-7.33-7.33Z" transform="translate(-2.58 -2.58)"/><path class="cls-2" d="M78.13,64.4l-6.27,5.81L63.42,62,45.9,85.82H94.81ZM63.93,68.22l9.71,9.39,2.83-2.93L74.8,73l2.85-2.64,8.83,11.34H54Z" transform="translate(-2.58 -2.58)"/><circle class="cls-2" cx="82.59" cy="58.61" r="2.59"/><polygon class="cls-2" points="14.63 35.44 53.46 35.44 53.46 44.3 57.54 44.3 57.54 31.36 10.56 31.36 10.56 59.48 18.37 59.48 18.37 55.41 14.63 55.41 14.63 35.44"/><rect class="cls-2" x="26.12" y="55.41" width="11.89" height="4.08"/><polygon class="cls-2" points="33.37 18.03 59.07 18.03 59.07 28.13 63.14 28.13 63.14 13.96 29.29 13.96 29.29 28.13 33.37 28.13 33.37 18.03"/><polygon class="cls-2" points="62.63 44.3 66.71 44.3 66.71 35.45 81.47 35.52 81.5 31.44 62.63 31.35 62.63 44.3"/><polygon class="cls-2" points="88.18 31.36 88.18 35.44 97.45 35.44 97.45 57.44 101.53 57.44 101.53 31.36 88.18 31.36"/><path class="cls-2" d="M44.85,85.82H95.72V51.2H44.85V85.82Zm4.08-30.55H91.64V81.75H48.93V55.28Z" transform="translate(-2.58 -2.58)"/><text class="cls-3" transform="translate(36.87 102.21)">Slider</text><rect class="cls-4" width="112.08" height="112.08" rx="9.35" ry="9.35"/><text x="-2.58" y="-2.58"/><text class="cls-3" transform="translate(35.31 102.21)">Modal</text><path class="cls-5" d="M43.5,57.17H55.83a0.38,0.38,0,1,0,0-.75H43.5A0.38,0.38,0,1,0,43.5,57.17ZM92.34,76.48H66.75a1.45,1.45,0,0,0-.47.08l-4.58,1.59H49.62l-4-1.57a1.46,1.46,0,0,0-.53-0.1H18.47a1.38,1.38,0,0,0-1.4,1.35v2.48A6.85,6.85,0,0,0,24,87H86.78a6.84,6.84,0,0,0,7-6.69V77.83A1.38,1.38,0,0,0,92.34,76.48ZM43.5,59.54H55.83a0.38,0.38,0,1,0,0-.75H43.5A0.38,0.38,0,1,0,43.5,59.54Zm0,2.37H55.83a0.38,0.38,0,1,0,0-.75H43.5A0.38,0.38,0,1,0,43.5,61.91Zm-3.31-5.45H34.42V62h5.76V56.45ZM25.11,73.21H85.69a1.38,1.38,0,0,0,1.4-1.35V57l-2.81,2.18V70.5H26.51V35.58h5.31V32.88H25.11a1.38,1.38,0,0,0-1.4,1.35V71.86A1.38,1.38,0,0,0,25.11,73.21Zm6.71-35h-1.4A1.38,1.38,0,0,0,29,39.54V67a1.38,1.38,0,0,0,1.4,1.35H80.15A1.38,1.38,0,0,0,81.56,67V61.28l-2.81,2.18v2.21H31.82V38.18Z" transform="translate(-2.58 -2.58)"/><path class="cls-5" d="M93.25,13.11H41.57a6.83,6.83,0,0,0-6.94,6.69V46.16a6.82,6.82,0,0,0,6.94,6.69h32v8.32a1.35,1.35,0,0,0,.8,1.22,1.45,1.45,0,0,0,1.49-.17l12.08-9.37h5.31a6.82,6.82,0,0,0,6.94-6.69V19.8A6.83,6.83,0,0,0,93.25,13.11Zm4.13,33.05a4.06,4.06,0,0,1-4.13,4h-5.8a1.44,1.44,0,0,0-.88.3l-10.18,7.9V51.5A1.38,1.38,0,0,0,75,50.14H41.57a4.06,4.06,0,0,1-4.13-4V19.8a4.06,4.06,0,0,1,4.13-4H93.25a4.06,4.06,0,0,1,4.13,4V46.16ZM67,26.59l-5.09-.65L59.6,21.41a4.26,4.26,0,0,0-7.52,0l-2.22,4.46-5.19.73a4.13,4.13,0,0,0-3.39,2.75,3.91,3.91,0,0,0,1.06,4.14l3.71,3.41-0.89,5a4,4,0,0,0,1.67,4,4.3,4.3,0,0,0,4.42.31l4.51-2.35,4.64,2.35a4.3,4.3,0,0,0,4.41-.31,4,4,0,0,0,1.67-4L65.57,37l3.75-3.53a3.91,3.91,0,0,0,1.06-4.14A4.13,4.13,0,0,0,67,26.59Zm0.1,4.69-3.76,3.53a2.87,2.87,0,0,0-.88,2.6l0.89,5a0.93,0.93,0,0,1-.4,1,1,1,0,0,1-1.06.07l-4.64-2.35a3.15,3.15,0,0,0-2.84,0l-4.64,2.35a1,1,0,0,1-1.06-.07,0.93,0.93,0,0,1-.4-1l0.89-5a2.87,2.87,0,0,0-.88-2.6l-3.75-3.53a0.92,0.92,0,0,1-.26-1,1,1,0,0,1,.81-0.66l5.19-.73a3,3,0,0,0,2.3-1.61l2.32-4.53a1,1,0,0,1,1.81,0l2.32,4.53a3,3,0,0,0,2.29,1.61l5.19,0.73a1,1,0,0,1,.81.66A0.92,0.92,0,0,1,67.1,31.29Zm24,3.32H75.83a1.54,1.54,0,1,0,0,3.07h15.3A1.54,1.54,0,1,0,91.13,34.61Zm0-6.53H75.83a1.54,1.54,0,1,0,0,3.07h15.3A1.54,1.54,0,1,0,91.13,28.08Zm0-6.53H75.83a1.54,1.54,0,1,0,0,3.07h15.3A1.54,1.54,0,1,0,91.13,21.55Zm0,19.58H75.83a1.54,1.54,0,1,0,0,3.07h15.3A1.54,1.54,0,1,0,91.13,41.13Z" transform="translate(-2.58 -2.58)"/></svg>